# xmcd CD database file
#
# Track frame offsets:
#	150
#	2935
#	12982
#	23985
#	37875
#	56262
#	67957
#	74975
#	96590
#	111232
#	128800
#
# Disc length: 1963 seconds
#
# Revision: 0
# Processed by: cddbd v1.5PL3 Copyright (c) Steve Scherf et al.
# Submitted via: CDex 1.50
#
DISCID=9807a90b
DTITLE=シャイ＆ムーニー＋エージ＆テツ - ア・ラ・カペラ
DYEAR=1900
DGENRE=Acapella
TTITLE0=サラスポンダ
TTITLE1=ポパイ
TTITLE2=ロールパン
TTITLE3=エコノミックモンキー
TTITLE4=ふとっちょママのほうきダンス
TTITLE5=Seeing My Lady
TTITLE6=きよしこの心
TTITLE7=I WANNA BE LOVED
TTITLE8=Help me please
TTITLE9=ベッドサイドの海
TTITLE10=Lonsome Rail-road Blues
EXTD=
EXTT0=
EXTT1=
EXTT2=
EXTT3=
EXTT4=
EXTT5=
EXTT6=
EXTT7=
EXTT8=
EXTT9=
EXTT10=
PLAYORDER=
